# xmcd
#
# Track frame offsets:
#	150
#	15952
#	35138
#	53918
#	71214
#	102726
#	116484
#	135332
#	160281
#	160624
#	161097
#	161650
#
# Disc length: 2341 seconds
#
# Revision: 1
# Processed by: cddbd v1.4PL0 Copyright (c) Steve Scherf et al.
# Submitted via: audiograbber 1.81.03
#
DISCID=9d09230c
DTITLE=Stew Moss - Live in the Stewdio
DYEAR=2002
DGENRE=Blues
TTITLE0=Until That Day
TTITLE1=The Monkey Song
TTITLE2=St. James Infirmary
TTITLE3=Frona Mae
TTITLE4=The Plum
TTITLE5=Get Back Home
TTITLE6=Love My Baby
TTITLE7=Spider Woman
TTITLE8=Blank
TTITLE9=Blank
TTITLE10=Blank
TTITLE11=Osama Yo Mama
EXTD=
EXTT0=
EXTT1=
EXTT2=
EXTT3=
EXTT4=
EXTT5=
EXTT6=
EXTT7=
EXTT8=
EXTT9=
EXTT10=
EXTT11=
PLAYORDER=
